<svg viewBox="0 0 28 28" xmlns="http://www.w3.org/2000/svg" fill="currentColor">
  <path d="m25 25h-14c-.6 0-1-.4-1-1v-4c0-.6.4-1 1-1h14c.6 0 1 .4 1 1v4c0 .6-.4 1-1 1zm-18 0h-4c-.6 0-1-.4-1-1v-4c0-.6.4-1 1-1h4c.6 0 1 .4 1 1v4c0 .6-.4 1-1 1zm18-8h-14c-.6 0-1-.4-1-1v-4c0-.6.4-1 1-1h14c.6 0 1 .4 1 1v4c0 .6-.4 1-1 1zm-18 0h-4c-.6 0-1-.4-1-1v-4c0-.6.4-1 1-1h4c.6 0 1 .4 1 1v4c0 .6-.4 1-1 1zm18-8h-14c-.6 0-1-.4-1-1v-4c0-.6.4-1 1-1h14c.6 0 1 .4 1 1v4c0 .6-.4 1-1 1zm-18 0h-4c-.6 0-1-.4-1-1v-4c0-.6.4-1 1-1h4c.6 0 1 .4 1 1v4c0 .6-.4 1-1 1z"/>
</svg>
