<svg viewBox="0 0 48 48" xmlns="http://www.w3.org/2000/svg" fill="currentColor">
  <path d="m19.48 26.64h-17.1c-1.04 0-1.88.84-1.88 1.88v17.1c0 1.04.84 1.88 1.88 1.88h17.1c1.04 0 1.88-.84 1.88-1.88v-17.1c0-1.04-.84-1.88-1.88-1.88z"/>
  <path d="m19.48.5h-17.1c-1.04 0-1.88.84-1.88 1.88v17.1c0 1.04.84 1.88 1.88 1.88h17.1c1.04 0 1.88-.84 1.88-1.88v-17.1c0-1.04-.84-1.88-1.88-1.88z"/>
  <path d="m45.62.5h-17.1c-1.04 0-1.88.84-1.88 1.88v17.1c0 1.04.84 1.88 1.88 1.88h17.1c1.04 0 1.88-.84 1.88-1.88v-17.1c0-1.04-.84-1.88-1.88-1.88z"/>
  <path d="m45.62 26.64h-17.1c-1.04 0-1.88.84-1.88 1.88v17.1c0 1.04.84 1.88 1.88 1.88h17.1c1.04 0 1.88-.84 1.88-1.88v-17.1c0-1.04-.84-1.88-1.88-1.88z"/>
</svg>
