<svg id="Layer_1" enable-background="new 0 0 28 28" viewBox="0 0 28 28" xmlns="http://www.w3.org/2000/svg"><switch><g><path d="m10.5 2.5c-1 1.7-1.7 4-2.1 6.5h-5.3c1.4-3.1 4.1-5.5 7.4-6.5zm-2.4 8.5h-5.7c-.5 1.9-.5 4.1 0 6h5.8c-.2-2-.2-4-.1-6zm.3 8h-5.3c1.4 3.1 4.1 5.5 7.4 6.5-1-1.7-1.7-4-2.1-6.5zm11.2 0c-.4 2.5-1.1 4.8-2.1 6.5 3.3-1 6-3.4 7.4-6.5zm6-8h-5.8c.2 2 .2 4 0 6h5.8c.5-1.9.5-4.1 0-6zm-8.1-8.5c1 1.7 1.7 4 2.1 6.5h5.3c-1.4-3.1-4.1-5.5-7.4-6.5zm-3.3-.5s-.1 0-.2 0-.1 0-.2 0c-1.2.2-2.8 2.8-3.5 7h7.2c-.6-4.2-2.1-6.8-3.3-7zm3.7 9h-7.7c-.2 1.8-.2 4.2 0 6h7.7c.1-1.8.1-4.2 0-6zm-7.5 8c.7 4.2 2.2 6.8 3.5 7h.2s.1 0 .2 0c1.2-.2 2.8-2.8 3.5-7z" fill="rgba(84,89,90,0.7)"></path></g></switch></svg>