<svg xmlns="http://www.w3.org/2000/svg"><symbol id="ic-dashboard" viewBox="0 0 24 24"><g fill="none" stroke="currentColor" stroke-width="1.7" stroke-linecap="round" stroke-linejoin="round"><rect x="3.5" y="3.5" width="7" height="7" rx="1"></rect><rect x="13.5" y="3.5" width="7" height="7" rx="1"></rect><rect x="3.5" y="13.5" width="7" height="7" rx="1"></rect><rect x="13.5" y="13.5" width="7" height="7" rx="1"></rect></g></symbol><symbol id="ic-menu" viewBox="0 0 24 24"><g fill="none" stroke="currentColor" stroke-width="1.7" stroke-linecap="round" stroke-linejoin="round"><line x1="3.5" y1="6" x2="4.6" y2="6"></line><line x1="7.5" y1="6" x2="20.5" y2="6"></line><line x1="3.5" y1="12" x2="4.6" y2="12"></line><line x1="7.5" y1="12" x2="20.5" y2="12"></line><line x1="3.5" y1="18" x2="4.6" y2="18"></line><line x1="7.5" y1="18" x2="20.5" y2="18"></line></g></symbol><symbol id="ic-translate" viewBox="0 0 24 24"><g fill="none" stroke="currentColor" stroke-width="1.7" stroke-linecap="round" stroke-linejoin="round"><circle cx="12" cy="12" r="9"></circle><line x1="3" y1="12" x2="21" y2="12"></line><ellipse cx="12" cy="12" rx="4" ry="9"></ellipse></g></symbol><symbol id="ic-qr" viewBox="0 0 24 24"><g fill="none" stroke="currentColor" stroke-width="1.7" stroke-linecap="round" stroke-linejoin="round"><rect x="3.5" y="3.5" width="6.5" height="6.5" rx="1"></rect><rect x="14" y="3.5" width="6.5" height="6.5" rx="1"></rect><rect x="3.5" y="14" width="6.5" height="6.5" rx="1"></rect><rect x="14.4" y="14.4" width="2.3" height="2.3"></rect><rect x="18.2" y="18.2" width="2.3" height="2.3"></rect><line x1="14.4" y1="20.5" x2="16.7" y2="20.5"></line></g></symbol><symbol id="ic-collapse" viewBox="0 0 24 24"><g fill="none" stroke="currentColor" stroke-width="1.7" stroke-linecap="round" stroke-linejoin="round"><rect x="3.5" y="4.5" width="17" height="15" rx="1.5"></rect><line x1="9.2" y1="4.5" x2="9.2" y2="19.5"></line><path d="M16 9.5 13.5 12 16 14.5"></path></g></symbol><symbol id="ic-settings" viewBox="0 0 24 24"><g fill="none" stroke="currentColor" stroke-width="1.7" stroke-linecap="round" stroke-linejoin="round"><line x1="3.5" y1="8" x2="20.5" y2="8"></line><line x1="3.5" y1="16" x2="20.5" y2="16"></line><circle cx="9" cy="8" r="2.3"></circle><circle cx="15" cy="16" r="2.3"></circle></g></symbol><symbol id="ic-house" viewBox="0 0 512 512"><g fill="currentColor"><path d="M414.042,149.67l-84.529-12.283L291.71,60.791c-14.601-29.587-56.822-29.578-71.418-0.001l-37.803,76.596L97.96,149.67c-32.653,4.744-45.687,44.899-22.069,67.923l61.166,59.622L122.618,361.4c-5.577,32.521,28.582,57.325,57.779,41.98l75.605-39.75l75.606,39.75c29.156,15.327,63.355-9.464,57.779-41.98l-14.439-84.186l61.167-59.622C459.737,194.56,446.681,154.413,414.042,149.67z M412.286,193.151l-67.591,65.884c-4.022,3.921-5.857,9.57-4.908,15.106l15.956,93.031c0.801,4.672-4.06,8.2-8.254,5.997l-83.547-43.923c-4.971-2.613-10.912-2.613-15.883,0l-83.547,43.923c-4.196,2.205-9.055-1.326-8.254-5.997l15.956-93.031c0.949-5.536-0.886-11.185-4.908-15.106l-67.591-65.884c-3.395-3.309-1.538-9.021,3.153-9.704l93.408-13.573c5.558-0.808,10.364-4.298,12.85-9.335l41.774-84.643c2.097-4.248,8.104-4.251,10.202,0.001l41.774,84.642c2.486,5.037,7.292,8.528,12.85,9.335l93.408,13.573C413.824,184.13,415.68,189.843,412.286,193.151z"></path><path d="M134.731,47.152L114.32,19.059c-5.542-7.624-16.214-9.316-23.838-3.774c-7.625,5.54-9.316,16.213-3.775,23.838l20.411,28.092c5.544,7.628,16.216,9.313,23.838,3.774C138.581,65.45,140.272,54.777,134.731,47.152z"></path><path d="M66.997,298.907c-2.911-8.963-12.539-13.873-21.505-10.957l-33.696,10.949c-8.964,2.913-13.869,12.54-10.957,21.505c2.917,8.979,12.561,13.867,21.505,10.957l33.696-10.949C65.005,317.499,69.91,307.871,66.997,298.907z"></path><path d="M421.519,15.286c-7.624-5.54-18.297-3.851-23.838,3.774l-20.411,28.092c-5.541,7.625-3.85,18.299,3.775,23.838c7.628,5.542,18.3,3.848,23.838-3.774l20.411-28.092C430.834,31.499,429.144,20.825,421.519,15.286z"></path><path d="M500.203,298.899l-33.696-10.949c-8.964-2.918-18.592,1.993-21.505,10.957c-2.913,8.964,1.992,18.593,10.957,21.505l33.696,10.949c8.945,2.909,18.588-1.979,21.505-10.957C514.073,311.44,509.167,301.812,500.203,298.899z"></path><path d="M256,431.205c-9.425,0-17.066,7.641-17.066,17.066v34.638c0,9.425,7.641,17.066,17.066,17.066c9.425,0,17.066-7.641,17.066-17.066v-34.638C273.067,438.845,265.426,431.205,256,431.205z"></path></g></symbol><symbol id="ic-loved" viewBox="0 0 24 24"><g fill="currentColor"><path d="m8.061 11.166c1.244-2.448 4.08-3.011 5.894-2.133 1.97.952 2.864 3.671 2.009 6.861-.522 2.17-2.616 4.787-4.47 6.637-.189.189-.465.263-.723.194-2.531-.675-5.653-1.895-7.19-3.513-2.336-2.335-2.921-5.136-1.691-6.946 1.132-1.668 3.87-2.598 6.171-1.1zm-.2 1.763c-1.634-1.631-3.871-1.085-4.73.179-.418.615-.475 1.394-.255 2.215.252.941.861 1.926 1.772 2.834.005.006.01.011.015.016 1.295 1.369 3.879 2.368 6.076 2.987 1.593-1.634 3.332-3.792 3.768-5.624.002-.008.004-.015.006-.022.334-1.242.369-2.4.117-3.341-.22-.821-.659-1.467-1.328-1.79-1.376-.666-3.586-.02-4.187 2.21-.069.258-.271.46-.53.529-.258.069-.534-.004-.724-.193z"></path><path d="m15.987 14.449c-.386.148-.82-.046-.968-.432-.149-.387.045-.821.431-.969 1.534-.588 3.012-1.338 3.887-2.263.005-.006.01-.011.015-.016.911-.909 1.52-1.894 1.772-2.835.22-.821.163-1.6-.255-2.214-.859-1.265-3.096-1.811-4.73-.18-.19.189-.466.263-.724.193-.259-.069-.461-.271-.53-.529-.601-2.23-2.811-2.876-4.187-2.21-.669.324-1.108.97-1.328 1.79-.252.941-.217 2.099.117 3.342.002.007.004.014.006.021.123.52.359 1.068.664 1.624.2.363.067.819-.296 1.018-.363.2-.819.067-1.018-.296-.373-.68-.654-1.352-.807-1.989-.855-3.19.039-5.907 2.009-6.86 1.814-.878 4.65-.315 5.894 2.134 2.301-1.499 5.039-.568 6.171 1.099 1.229 1.81.645 4.611-1.684 6.939-1.005 1.062-2.679 1.958-4.439 2.633z"></path><path d="m6.171 5.165c.185.37.035.821-.336 1.006-.37.185-.821.035-1.006-.336l-.5-1c-.185-.37-.035-.821.336-1.006.37-.185.821-.035 1.006.336z"></path><path d="m17.329 18.835c-.185-.37-.035-.821.336-1.006.37-.185.821-.035 1.006.336l.5 1c.185.37.035.821-.336 1.006-.37.185-.821.035-1.006-.336z"></path><path d="m3.835 9.671c-.37.185-.821.035-1.006-.336-.185-.37-.035-.821.336-1.006l1-.5c.37-.185.821-.035 1.006.336.185.37.035.821-.336 1.006z"></path><path d="m19.665 14.329c.37-.185.821-.035 1.006.336.185.37.035.821-.336 1.006l-1 .5c-.37.185-.821.035-1.006-.336-.185-.37-.035-.821.336-1.006z"></path></g></symbol><symbol id="ic-chevron" viewBox="0 0 24 24"><g fill="currentColor"><path clip-rule="evenodd" d="m18.5303 9.46967c.2929.29289.2929.76773 0 1.06063l-6 6c-.2929.2929-.7677.2929-1.0606 0l-6.00003-6c-.29289-.2929-.29289-.76774 0-1.06063s.76777-.29289 1.06066 0l5.46967 5.46963 5.4697-5.46963c.2929-.29289.7677-.29289 1.0606 0z" fill-rule="evenodd"></path></g></symbol><symbol id="ic-copy" viewBox="0 0 32 32"><g fill="currentColor"><path d="m26.5718 2.1602h-16.874c-1.7964 0-3.2578 1.4658-3.2578 3.2676v1.0117h-1.0225c-1.7964 0-3.2578 1.4658-3.2578 3.2686v16.8643c0 1.8018 1.4614 3.2676 3.2578 3.2676h16.8745c1.8022 0 3.2681-1.4658 3.2681-3.2676v-1.0117h1.0117c1.8022 0 3.2686-1.4658 3.2686-3.2686v-16.8644c-.0001-1.8017-1.4664-3.2675-3.2686-3.2675zm-3.0117 24.4121c0 .6992-.5688 1.2676-1.2681 1.2676h-16.8745c-.6934 0-1.2578-.5684-1.2578-1.2676v-16.8643c0-.6992.5645-1.2686 1.2578-1.2686h2.0225 14.852c.6992 0 1.2681.5693 1.2681 1.2686v14.8525zm4.2802-4.2803c0 .6992-.5688 1.2686-1.2686 1.2686h-1.0117v-13.8526c0-1.8027-1.4658-3.2686-3.2681-3.2686h-13.852v-1.0117c0-.6992.5645-1.2676 1.2578-1.2676h16.874c.6997 0 1.2686.5684 1.2686 1.2676z"></path></g></symbol></svg>