<svg id="Layer_1" viewBox="0 0 64 64" xmlns="http://www.w3.org/2000/svg" data-name="Layer 1"><path d="m59.616 4.729h-33.014c-.553 0-1 .448-1 1s.447 1 1 1h33.014c.553 0 1-.448 1-1s-.447-1-1-1z"></path><path d="m26.602 14.577h23.746c.553 0 1-.448 1-1s-.447-1-1-1h-23.746c-.553 0-1 .448-1 1s.447 1 1 1z"></path><path d="m3.384 4.915v9.477c0 1.607 1.308 2.914 2.914 2.914h9.477c1.606 0 2.914-1.307 2.914-2.914v-9.477c0-1.607-1.308-2.915-2.914-2.915h-9.477c-1.606 0-2.914 1.308-2.914 2.915zm13.306 0v9.477c0 .504-.41.914-.914.914h-9.478c-.504 0-.914-.41-.914-.914v-9.477c0-.504.41-.915.914-.915h9.477c.504 0 .914.41.914.915z"></path><path d="m59.616 27.077h-33.014c-.553 0-1 .448-1 1s.447 1 1 1h33.014c.553 0 1-.448 1-1s-.447-1-1-1z"></path><path d="m26.602 36.923h23.746c.553 0 1-.448 1-1s-.447-1-1-1h-23.746c-.553 0-1 .448-1 1s.447 1 1 1z"></path><path d="m3.384 36.739c0 1.607 1.308 2.914 2.914 2.914h9.477c1.606 0 2.914-1.307 2.914-2.914v-9.478c0-1.607-1.308-2.914-2.914-2.914h-9.477c-1.606 0-2.914 1.307-2.914 2.914zm2-9.478c0-.504.41-.914.914-.914h9.477c.504 0 .914.41.914.914v9.478c0 .504-.41.914-.914.914h-9.477c-.504 0-.914-.41-.914-.914z"></path><path d="m60.616 50.423c0-.552-.447-1-1-1h-33.014c-.553 0-1 .448-1 1s.447 1 1 1h33.014c.553 0 1-.448 1-1z"></path><path d="m26.602 57.271c-.553 0-1 .448-1 1s.447 1 1 1h23.746c.553 0 1-.448 1-1s-.447-1-1-1z"></path><path d="m3.384 59.085c0 1.607 1.308 2.915 2.914 2.915h9.477c1.606 0 2.914-1.308 2.914-2.915v-9.477c0-1.607-1.308-2.914-2.914-2.914h-9.477c-1.606 0-2.914 1.307-2.914 2.914zm2-9.477c0-.504.41-.914.914-.914h9.477c.504 0 .914.41.914.914v9.477c0 .504-.41.915-.914.915h-9.477c-.504 0-.914-.41-.914-.915z"></path></svg>