<svg id="Capa_1" enable-background="new 0 0 512 512" height="512" viewBox="0 0 512 512" width="512" xmlns="http://www.w3.org/2000/svg"><g id="Layout"><g><path d="m176 476h-116c-33.084 0-60-26.916-60-60v-320c0-33.084 26.916-60 60-60h116c33.084 0 60 26.916 60 60v320c0 33.084-26.916 60-60 60zm-116-400c-11.028 0-20 8.972-20 20v320c0 11.028 8.972 20 20 20h116c11.028 0 20-8.972 20-20v-320c0-11.028-8.972-20-20-20z"></path></g><g><path d="m452 236h-116c-33.084 0-60-26.916-60-60v-80c0-33.084 26.916-60 60-60h116c33.084 0 60 26.916 60 60v80c0 33.084-26.916 60-60 60zm-116-160c-11.028 0-20 8.972-20 20v80c0 11.028 8.972 20 20 20h116c11.028 0 20-8.972 20-20v-80c0-11.028-8.972-20-20-20z"></path></g><g><path d="m452 476h-116c-33.084 0-60-26.916-60-60v-80c0-33.084 26.916-60 60-60h116c33.084 0 60 26.916 60 60v80c0 33.084-26.916 60-60 60zm-116-160c-11.028 0-20 8.972-20 20v80c0 11.028 8.972 20 20 20h116c11.028 0 20-8.972 20-20v-80c0-11.028-8.972-20-20-20z"></path></g></g></svg>